<?xml version="1.0" encoding="UTF-8" standalone="no"?>
<svg
   xml:space="preserve"
   width="128"
   height="128"
   version="1.1"
   id="svg15"
   sodipodi:docname="GnomeSurface.svg"
   inkscape:version="1.4.3 (0d15f75042, 2025-12-25)"
   inkscape:export-filename="GnomeSurface.128.png"
   inkscape:export-xdpi="384"
   inkscape:export-ydpi="384"
   xmlns:inkscape="http://www.inkscape.org/namespaces/inkscape"
   xmlns:sodipodi="http://sodipodi.sourceforge.net/DTD/sodipodi-0.dtd"
   xmlns="http://www.w3.org/2000/svg"
   xmlns:svg="http://www.w3.org/2000/svg"><defs
     id="defs15"><inkscape:perspective
   sodipodi:type="inkscape:persp3d"
   inkscape:vp_x="4540.2 : 3378.9 : 1"
   inkscape:vp_y="0 : 1000 : 0"
   inkscape:vp_z="5079.7 : 3410.5 : 1"
   inkscape:persp3d-origin="5008.4 : 3236 : 1"
   id="perspective64" />
		
		
		
		
		
		
		
		
		
		
		
		
		
		
		
		
		
		
		
		
		
		
		
		
		
		
		
		
		
		
		
		
		
		
		
	
			
			
			
		</defs><sodipodi:namedview
     id="namedview15"
     pagecolor="#ffffff"
     bordercolor="#000000"
     borderopacity="0.25"
     inkscape:showpageshadow="2"
     inkscape:pageopacity="0.0"
     inkscape:pagecheckerboard="0"
     inkscape:deskcolor="#d1d1d1"
     inkscape:zoom="3.125"
     inkscape:cx="45.76"
     inkscape:cy="85.12"
     inkscape:window-width="1920"
     inkscape:window-height="1043"
     inkscape:window-x="0"
     inkscape:window-y="0"
     inkscape:window-maximized="1"
     inkscape:current-layer="svg15" /><g
     id="g97"
     transform="translate(139.38,47.517)"><path
       id="path82"
       style="fill:#cdebff;fill-opacity:1;stroke:none;stroke-width:2.06857;stroke-dasharray:none;stroke-opacity:1"
       d="m -20.435,-39.115 c -19.423,4.778 -66.533,15.307 -107.335,17.044 -1.43,9.024 -4.78,65.121 -2.53,94.153 19.43,-4.78 66.54,-15.31 107.345,-17.05 1.43,-9.021 4.77,-65.119 2.52,-94.147 z"
       sodipodi:nodetypes="ccccc" /><path
       d="m -100.16,24.373 c -0.47,0.235 -2.03,1.175 -3.5,2.028 -5.25,3.034 -11.65,7.295 -15.39,10.255 -3.83,3.02 -5.66,4.974 -6.04,6.45 -0.6,2.245 1.59,2.509 6.63,0.773 1.93,-0.657 3.49,-1.29 14.6,-5.905 8.914,-3.698 13.571,-5.33 18.166,-6.329 4.529,-0.992 8.092,-0.921 9.405,0.223 1.186,1.026 1.37,2.46 0.508,5.802 -1.08,4.361 -0.632,5.901 1.932,6.83 2.693,0.963 8.258,0.03 15.223,-2.559 2.446,-0.901 10.374,-4.865 13.1,-6.551 6.686,-4.115 16.436,-11.97 18.006,-14.49 0.75,-1.214 0.32,-2.177 -0.96,-2.194 -1.58,-0.03 -3.39,0.7 -12.428,4.927 -6.119,2.878 -7.507,3.404 -9.584,3.673 -2.492,0.308 -3.762,-0.554 -3.74,-2.525 0,-0.459 0.532,-2.463 1.179,-4.472 0.632,-2.011 1.216,-4.174 1.283,-4.795 0.691,-6.54 -5.403,-8.119 -17.635,-4.59 -6.876,1.981 -11.65,3.939 -21.662,8.884 -4.524,2.262 -8.622,4.311 -9.093,4.546 z"
       style="fill:#a576d1;fill-opacity:1;stroke:none;stroke-width:0.175399"
       id="path83" /><path
       d="m -87.472,36.935 c -0.47,0.235 -2.165,0.933 -3.713,1.587 -5.581,2.386 -12.825,4.939 -17.445,6.172 -4.71,1.242 -7.36,1.539 -8.79,0.964 -2.14,-0.883 -1.04,-2.783 3.37,-5.783 1.69,-1.135 3.12,-1.998 13.48,-8.137 8.314,-4.903 12.408,-7.66 15.958,-10.721 3.521,-3.036 5.583,-5.938 5.472,-7.671 -0.109,-1.562 -1.253,-2.507 -4.334,-3.88 -4.146,-1.77 -5.115,-3.036 -4.306,-5.645 0.828,-2.739 4.926,-6.636 11.179,-10.645 2.191,-1.413 10.118,-5.378 13.101,-6.551 7.307,-2.881 19.436,-5.972 22.398,-5.704 1.419,0.123 1.932,1.056 1.195,2.083 -0.941,1.28 -2.582,2.282 -11.404,6.976 -5.957,3.175 -7.214,3.963 -8.681,5.48 -1.744,1.802 -1.824,3.323 -0.224,4.507 0.356,0.263 2.287,1.047 4.284,1.738 1.997,0.69 4.062,1.517 4.616,1.841 5.631,3.368 3.244,9.201 -6.92,16.866 -5.711,4.31 -10.14,6.959 -20.092,11.995 -4.535,2.268 -8.633,4.317 -9.103,4.552 z"
       style="fill:#5f8ae8;fill-opacity:1;stroke:none;stroke-width:0.175399"
       id="path84" /><path
       d="m -84.396,51.062 c -2.548,0.812 -6.394,1.182 -9.434,0.896 -4.529,-0.436 -8.91,-1.494 -18.96,-4.618 -5.24,-1.63 -8.25,-1.459 -11,-3.13 -0.53,-0.325 -0.64,-0.55 0.4,-0.474 2.44,0.176 8.47,-0.596 12.45,-1.646 1.97,-0.508 2.27,-0.532 4.72,-0.363 1.43,0.09 2.63,0.226 2.66,0.295 0,0.09 0.17,0.06 0.26,0.01 0.22,-0.112 3.498,0.278 7.023,0.833 5.716,0.907 8.851,1.271 10.749,1.288 4.093,-0.02 7.844,-1.053 10.834,-3.024 1.59,-1.047 3.493,-2.727 4.193,-3.679 0.246,-0.319 0.459,-0.565 0.464,-0.554 0,0 -0.184,0.47 -0.464,0.946 -0.252,0.504 -0.476,0.98 -0.498,1.047 -0.08,0.375 -1.406,2.537 -2.391,3.897 -1.237,1.724 -2.396,3.018 -3.964,4.389 -1.242,1.098 -5.318,3.36 -7.042,3.886 z"
       style="fill:#76d176;fill-opacity:1;stroke-width:0.662921"
       id="path85" /><path
       d="m -89.626,43.012 c -2.877,0.767 -3.409,0.795 -6.41,0.336 -4.084,-0.642 -6.244,-0.889 -9.474,-1.12 a 505.94,505.94 0 0 1 -2.89,-0.208 c 0,0 1.3,-0.649 2.9,-1.45 3.15,-1.573 4.13,-2.227 6.577,-4.367 3.812,-3.349 7.082,-7.445 12.964,-16.229 6.733,-10.048 10.173,-14.449 15.088,-19.258 6.443,-6.318 14.567,-10.589 21.772,-11.463 3.617,-0.436 7.872,0.07 11.409,1.356 3.44,1.245 5.46,3.125 8.53,5.816 1.85,1.632 3.22,3.233 1.92,2.367 -2.3,-1.52 -5.53,-3.231 -7.93,-3.525 -2.64,-0.321 -6.254,-0.854 -9.121,0 -2.406,0.703 -5.972,2.388 -8.396,3.979 -4.089,2.682 -7.251,5.597 -10.196,9.419 -2.621,3.381 -3.456,4.79 -8.978,15.02 -4.762,8.839 -7.268,12.421 -10.812,15.495 -1.757,1.523 -5.016,3.348 -6.947,3.852 z"
       style="fill:#e8d25e;fill-opacity:1;stroke-width:0.662921"
       id="path86" /><path
       d="m -78.574,43.336 c -4.597,1.528 -7.614,1.708 -13.325,0.812 -1.108,-0.173 -1.825,-0.375 -1.579,-0.414 0.275,0.02 1.081,-0.218 1.865,-0.386 1.231,-0.224 1.819,-0.448 4.019,-1.563 2.307,-1.153 2.704,-1.506 3.992,-2.541 3.561,-3.153 6.049,-6.715 10.795,-15.5 5.53,-10.243 6.369,-11.643 8.974,-15.028 2.945,-3.823 6.106,-6.739 10.196,-9.42 2.429,-1.581 5.99,-3.276 8.408,-3.983 2.855,-0.841 6.249,-1.167 8.889,-0.845 2.5,0.303 5.84,1.618 8.16,3.226 1.04,0.716 2.65,2.175 2.6,2.338 0,0 -0.51,-0.235 -1.11,-0.621 -1.35,-0.88 -3.6,-1.773 -5.29,-2.103 -4.39,-0.854 -10.031,0.214 -14.592,2.765 -6.584,3.683 -11.512,9.98 -16.455,21.033 -3.875,8.681 -7.01,15.175 -8,16.581 -1.434,2.088 -5.123,4.843 -7.547,5.649 z"
       style="fill:#e85f5f;fill-opacity:1;stroke-width:0.662921"
       id="path87" /><path
       id="path88"
       style="fill:#007ac7;fill-opacity:1;stroke:none;stroke-width:0.0188433"
       d="m -133.16,-31.312 c -1.08,0 -2.24,108.964 -1.32,111.794 10.51,-0.45 77.782,-14.9 116.875,-16.21 1.08,0 2.24,-108.962 1.31,-111.784 -6.4,-0.28 -77.243,14.878 -116.865,16.2 z m 110.395,-5.434 c 2.14,27.7904 -1.05,81.504 -2.43,90.138 -39.057,1.66 -84.165,11.75 -102.755,16.32 -2.16,-27.789 1.04,-81.504 2.41,-90.137 39.059,-1.661 84.169,-11.744 102.775,-16.321 z"
       sodipodi:nodetypes="scscsccccc" /></g><text
     xml:space="preserve"
     style="font-weight:bold;font-size:10.1394px;font-family:'Adwaita Sans';-inkscape-font-specification:'Adwaita Sans Bold';text-align:start;writing-mode:lr-tb;direction:ltr;text-anchor:start;opacity:0.9;fill:#512bd4;fill-opacity:1;stroke:none;stroke-width:2.8165;stroke-opacity:1"
     x="-1288"
     y="203.17"
     id="text83"><tspan
       sodipodi:role="line"
       id="tspan83"
       x="-1288"
       y="203.17"
       style="stroke-width:2.8165" /></text></svg>
